<?xml version="1.0" encoding="UTF-8"?>
<svg width="51px" height="63px" viewBox="0 0 51 63" version="1.1" xmlns="http://www.w3.org/2000/svg" xmlns:xlink="http://www.w3.org/1999/xlink">
    <!-- Generator: Sketch 47.1 (45422) - http://www.bohemiancoding.com/sketch -->
    <title>ratings</title>
    <desc>Created with Sketch.</desc>
    <defs></defs>
    <g id="Page-1" stroke="none" stroke-width="1" fill="none" fill-rule="evenodd">
        <g id="ratings" fill-rule="nonzero" fill="#000000">
            <g id="Group">
                <path d="M13.0764,7.98 C12.9438831,8.35995628 13.05545,8.77666576 13.3642667,9.0552 L18.326,13.545 L17.1541333,19.8723 C17.0812842,20.2662072 17.2561132,20.6642757 17.6051197,20.8991515 C17.9541262,21.1340273 18.4167898,21.1649813 18.7986,20.979 L24.9333333,17.9865 L31.0680667,20.97375 C31.4498768,21.1597313 31.9125405,21.1287773 32.261547,20.8939015 C32.6105535,20.6590257 32.7853825,20.2609572 32.7125333,19.86705 L31.5406667,13.545 L36.5024,9.06255 C36.8073623,8.78335055 36.9161618,8.36861475 36.7835355,7.99088165 C36.6509092,7.61314856 36.2995638,7.33708911 35.8756667,7.27755 L29.0133333,6.34305 L25.9533333,0.5859 C25.7412829,0.252316108 25.3545942,0.0475362897 24.9367333,0.0475362897 C24.5188724,0.0475362897 24.1321837,0.252316108 23.9201333,0.5859 L20.8533333,6.34305 L13.9944,7.26705 C13.5667646,7.32322274 13.210767,7.5997026 13.0764,7.98 Z M21.7656667,8.3391 C22.1348214,8.28943431 22.4539576,8.07465121 22.6190667,7.76475 L24.9333333,3.423 L27.2476,7.77 C27.4127091,8.07990121 27.7318453,8.29468431 28.101,8.34435 L33.2769333,9.04155 L29.5369333,12.4236 C29.2697039,12.6647111 29.1476447,13.0122097 29.2105333,13.35285 L30.0945333,18.12825 L25.4648667,15.8739 C25.134906,15.713335 24.7408273,15.713335 24.4108667,15.8739 L19.7766667,18.1251 L20.6606667,13.3497 C20.7235553,13.0090597 20.6014961,12.6615611 20.3342667,12.42045 L16.5942667,9.0384 L21.7656667,8.3391 Z" id="Shape"></path>
                <path d="M12.8066667,15.8655 C13.0346023,15.5910058 13.1017803,15.230034 12.9862245,14.9006701 C12.8706687,14.5713062 12.5872436,14.3159175 12.2286667,14.21805 L9.22533333,13.398 L7.45733333,11.00295 C7.24596849,10.7176219 6.89642721,10.5471051 6.5229,10.5471051 C6.14937279,10.5471051 5.79983151,10.7176219 5.58846667,11.00295 L3.81706667,13.398 L0.8126,14.21805 C0.454217934,14.316171 0.171080953,14.5716643 0.0557639686,14.9009934 C-0.0595530155,15.2303225 0.00777462291,15.5911503 0.235733333,15.8655 L2.1454,18.165 L2.05926667,21.0651 C2.04896793,21.4111554 2.22344303,21.7396753 2.52565658,21.9432677 C2.82787013,22.14686 3.21897991,22.1993579 3.57113333,22.0836 L6.5178,21.1113 L9.46446667,22.0836 C9.81675618,22.1997967 10.2082374,22.1475133 10.5107613,21.9438646 C10.8132852,21.7402158 10.9879075,21.4114175 10.9774667,21.0651 L10.9004,18.165 L12.8066667,15.8655 Z M8.85473333,17.17905 C8.6962848,17.3709913 8.6134991,17.6073857 8.62013333,17.84895 L8.67113333,19.59195 L6.902,19.005 C6.65641906,18.9241054 6.38824761,18.9241054 6.14266667,19.005 L4.37013333,19.5888 L4.42,17.85 C4.42663424,17.6084357 4.34384853,17.3720413 4.1854,17.1801 L3.03846667,15.8004 L4.8416,15.3069 C5.09178196,15.2394528 5.30891011,15.0935912 5.45586667,14.89425 L6.52006667,13.4547 L7.58426667,14.89425 C7.73176614,15.0931014 7.94868505,15.2388225 8.19853333,15.3069 L10.0028,15.8004 L8.85473333,17.17905 Z" id="Shape"></path>
                <path d="M49.6320667,14.21805 L46.6287333,13.398 L44.8573333,11.00295 C44.6459685,10.7176219 44.2964272,10.5471051 43.9229,10.5471051 C43.5493728,10.5471051 43.1998315,10.7176219 42.9884667,11.00295 L41.2170667,13.398 L38.2126,14.21805 C37.8542179,14.316171 37.571081,14.5716643 37.455764,14.9009934 C37.340447,15.2303225 37.4077746,15.5911503 37.6357333,15.8655 L39.5454,18.165 L39.4592667,21.0651 C39.4489679,21.4111554 39.623443,21.7396753 39.9256566,21.9432677 C40.2278701,22.14686 40.6189799,22.1993579 40.9711333,22.0836 L43.9178,21.1113 L46.8644667,22.0836 C47.2167562,22.1997967 47.6082374,22.1475133 47.9107613,21.9438646 C48.2132852,21.7402158 48.3879075,21.4114175 48.3774667,21.0651 L48.3004,18.165 L50.2066667,15.8655 C50.4346023,15.5910058 50.5017803,15.230034 50.3862245,14.9006701 C50.2706687,14.5713062 49.9872436,14.3159175 49.6286667,14.21805 L49.6320667,14.21805 Z M46.2581333,17.17905 C46.0996848,17.3709913 46.0168991,17.6073857 46.0235333,17.84895 L46.0745333,19.59195 L44.302,19.005 C44.0564191,18.9241054 43.7882476,18.9241054 43.5426667,19.005 L41.7701333,19.5888 L41.82,17.85 C41.8266342,17.6084357 41.7438485,17.3720413 41.5854,17.1801 L40.4384667,15.8004 L42.2416,15.3069 C42.491782,15.2394528 42.7089101,15.0935912 42.8558667,14.89425 L43.9200667,13.4547 L44.9842667,14.89425 C45.1317661,15.0931014 45.3486851,15.2388225 45.5985333,15.3069 L47.4028,15.8004 L46.2581333,17.17905 Z" id="Shape"></path>
                <path d="M45.5747333,30.45525 L45.5747333,30.45525 C44.3316341,30.3982436 43.1172216,30.8134791 42.2121333,31.605 C42.1146667,31.6911 42.0206,31.7814 41.9322,31.8738 C41.0716235,30.9697482 39.8332693,30.4518389 38.5322,30.4518389 C37.2311307,30.4518389 35.9927765,30.9697482 35.1322,31.8738 C33.7066833,30.3714457 31.3343273,30.0109872 29.4655333,31.0128 L29.4655333,26.4285 C29.5180416,24.1451911 27.6319921,22.2234077 25.1736,22.05525 C23.9312074,21.994159 22.7163166,22.4088123 21.8136303,23.2020382 C20.9109441,23.9952641 20.3998066,25.0973398 20.4,26.25 L20.4,34.0557 L16.9535333,35.9709 C15.6238283,36.7138503 14.6790518,37.9274485 14.3378,39.3309 L12.7432,45.97845 C12.5391126,46.8317752 12.5675454,47.7187499 12.8259333,48.55935 L17.0442,62.23455 C17.1815891,62.6866696 17.6263608,62.999258 18.1333333,63 L46.4666667,63 C46.9304175,63.0001577 47.3474818,62.7385386 47.5195333,62.33955 L49.4609333,57.84135 C49.7293727,57.2210121 49.8670977,56.5587847 49.8666667,55.89045 L49.8666667,34.8285 C49.9191749,32.5451911 48.0331254,30.6234077 45.5747333,30.45525 Z M47.6,55.89045 C47.6006092,56.2915698 47.5178823,56.6890493 47.3563333,57.0612 L45.6994,60.9 L18.9878667,60.9 L15.0053333,47.985 C14.8506882,47.4805196 14.8335541,46.9483737 14.9554667,46.43625 L16.5466667,39.795 C16.7512779,38.951976 17.3187033,38.222971 18.1174667,37.7769 L20.4,36.5043 L20.4,39.9 C20.4,40.479899 20.9074106,40.95 21.5333333,40.95 C22.159256,40.95 22.6666667,40.479899 22.6666667,39.9 L22.6666667,26.25 C22.6657404,25.6726365 22.9214313,25.1203882 23.3736212,24.7230998 C23.8258111,24.3258114 24.4346062,24.118533 25.0568667,24.15 C26.3041068,24.2740249 27.237961,25.2668641 27.2,26.4285 L27.2,39.9 C27.2,40.479899 27.7074106,40.95 28.3333333,40.95 C28.959256,40.95 29.4666667,40.479899 29.4666667,39.9 L29.4666667,34.65 C29.4666667,33.490202 30.4814879,32.55 31.7333333,32.55 C32.9851788,32.55 34,33.490202 34,34.65 L34,39.9 C34,40.479899 34.5074106,40.95 35.1333333,40.95 C35.759256,40.95 36.2666667,40.479899 36.2666667,39.9 L36.2666667,34.65 C36.2666667,33.490202 37.2814879,32.55 38.5333333,32.55 C39.7851788,32.55 40.8,33.490202 40.8,34.65 L40.8,39.9 C40.8,40.479899 41.3074106,40.95 41.9333333,40.95 C42.559256,40.95 43.0666667,40.479899 43.0666667,39.9 L43.0666667,34.65 C43.0657404,34.0726365 43.3214313,33.5203882 43.7736212,33.1230998 C44.2258111,32.7258114 44.8346062,32.518533 45.4568667,32.55 C46.7041068,32.6740249 47.637961,33.6668641 47.6,34.8285 L47.6,55.89045 Z" id="Shape"></path>
            </g>
        </g>
    </g>
</svg>